<?xml version="1.0" encoding="UTF-8" standalone="no"?><svg xmlns="http://www.w3.org/2000/svg" xmlns:xlink="http://www.w3.org/1999/xlink" contentStyleType="text/css" height="492px" preserveAspectRatio="none" style="width:504px;height:492px;background:#FFFFFF;" version="1.1" viewBox="0 0 504 492" width="504px" zoomAndPan="magnify"><defs/><g><!--MD5=[7a86b9724c8d06feebd24183b75c094f]
class NavigatorController--><g id="elem_NavigatorController"><rect codeLine="1" fill="#F1F1F1" height="96.8906" id="NavigatorController" rx="2.5" ry="2.5" style="stroke:#181818;stroke-width:0.5;" width="224" x="7" y="31.5"/><ellipse cx="49.45" cy="47.5" fill="#A9DCDF" rx="11" ry="11" style="stroke:#181818;stroke-width:1.0;"/><path d="M49.5594,42.8438 L48.4031,47.9219 L50.7313,47.9219 L49.5594,42.8438 Z M48.075,40.6094 L51.0594,40.6094 L54.4188,53 L51.9656,53 L51.2,49.9375 L47.9188,49.9375 L47.1688,53 L44.7313,53 L48.075,40.6094 Z " fill="#000000"/><text fill="#000000" font-family="sans-serif" font-size="14" font-style="italic" lengthAdjust="spacing" textLength="131" x="69.55" y="52.3467">NavigatorController</text><line style="stroke:#181818;stroke-width:0.5;" x1="8" x2="230" y1="63.5" y2="63.5"/><rect fill="none" height="6" style="stroke:#C82930;stroke-width:1.0;" width="6" x="15" y="74.1484"/><text fill="#000000" font-family="sans-serif" font-size="14" lengthAdjust="spacing" textLength="130" x="27" y="80.4951">NavigatorView view</text><rect fill="none" height="6" style="stroke:#C82930;stroke-width:1.0;" width="6" x="15" y="90.4453"/><text fill="#000000" font-family="sans-serif" font-size="14" lengthAdjust="spacing" textLength="153" x="27" y="96.792">NavigatorModel model</text><line style="stroke:#181818;stroke-width:1.0;stroke-dasharray:1.0,2.0;" x1="8" x2="230" y1="104.0938" y2="104.0938"/><ellipse cx="18" cy="117.7422" fill="#84BE84" rx="3" ry="3" style="stroke:#038048;stroke-width:1.0;"/><text fill="#000000" font-family="sans-serif" font-size="14" lengthAdjust="spacing" textLength="198" x="27" y="121.0889">processNavigation(int mode)</text></g><!--MD5=[be050a14da3406b311951fedab607b9a]
class NavigatorModel--><g id="elem_NavigatorModel"><rect codeLine="8" fill="#F1F1F1" height="145.7813" id="NavigatorModel" rx="2.5" ry="2.5" style="stroke:#181818;stroke-width:0.5;" width="249" x="248.5" y="230"/><ellipse cx="315.75" cy="246" fill="#A9DCDF" rx="11" ry="11" style="stroke:#181818;stroke-width:1.0;"/><path d="M315.8594,241.3438 L314.7031,246.4219 L317.0313,246.4219 L315.8594,241.3438 Z M314.375,239.1094 L317.3594,239.1094 L320.7188,251.5 L318.2656,251.5 L317.5,248.4375 L314.2188,248.4375 L313.4688,251.5 L311.0313,251.5 L314.375,239.1094 Z " fill="#000000"/><text fill="#000000" font-family="sans-serif" font-size="14" font-style="italic" lengthAdjust="spacing" textLength="106" x="336.25" y="250.8467">NavigatorModel</text><line style="stroke:#181818;stroke-width:0.5;" x1="249.5" x2="496.5" y1="262" y2="262"/><ellipse cx="259.5" cy="275.6484" fill="none" rx="3" ry="3" style="stroke:#038048;stroke-width:1.0;"/><text fill="#000000" font-family="sans-serif" font-size="14" lengthAdjust="spacing" textLength="165" x="268.5" y="278.9951">CIRCULATION_NONE: int</text><ellipse cx="259.5" cy="291.9453" fill="none" rx="3" ry="3" style="stroke:#038048;stroke-width:1.0;"/><text fill="#000000" font-family="sans-serif" font-size="14" lengthAdjust="spacing" textLength="223" x="268.5" y="295.292">CIRCULATION_UP_TO_DOWN: int</text><ellipse cx="259.5" cy="308.2422" fill="none" rx="3" ry="3" style="stroke:#038048;stroke-width:1.0;"/><text fill="#000000" font-family="sans-serif" font-size="14" lengthAdjust="spacing" textLength="223" x="268.5" y="311.5889">CIRCULATION_DOWN_TO_UP: int</text><ellipse cx="259.5" cy="324.5391" fill="none" rx="3" ry="3" style="stroke:#038048;stroke-width:1.0;"/><text fill="#000000" font-family="sans-serif" font-size="14" lengthAdjust="spacing" textLength="165" x="268.5" y="327.8857">CIRCULATION_BOTH: int</text><ellipse cx="259.5" cy="340.8359" fill="none" rx="3" ry="3" style="stroke:#038048;stroke-width:1.0;"/><text fill="#000000" font-family="sans-serif" font-size="14" lengthAdjust="spacing" textLength="214" x="268.5" y="344.1826">MOVE_WINDOW_PAGEWISE: int</text><ellipse cx="259.5" cy="357.1328" fill="none" rx="3" ry="3" style="stroke:#038048;stroke-width:1.0;"/><text fill="#000000" font-family="sans-serif" font-size="14" lengthAdjust="spacing" textLength="205" x="268.5" y="360.4795">MOVE_WINDOW_LINEWISE: int</text><line style="stroke:#181818;stroke-width:0.5;" x1="249.5" x2="496.5" y1="367.7813" y2="367.7813"/></g><!--MD5=[658f2936007c69aff42247a8955acf51]
class NavigatorModelData--><g id="elem_NavigatorModelData"><rect codeLine="17" fill="#F1F1F1" height="145.7813" id="NavigatorModelData" rx="2.5" ry="2.5" style="stroke:#181818;stroke-width:0.5;" width="221" x="266.5" y="7"/><ellipse cx="304.45" cy="23" fill="#ADD1B2" rx="11" ry="11" style="stroke:#181818;stroke-width:1.0;"/><path d="M307.4188,28.6406 Q306.8406,28.9375 306.2,29.0781 Q305.5594,29.2344 304.8563,29.2344 Q302.3563,29.2344 301.0281,27.5938 Q299.7156,25.9375 299.7156,22.8125 Q299.7156,19.6875 301.0281,18.0313 Q302.3563,16.375 304.8563,16.375 Q305.5594,16.375 306.2,16.5313 Q306.8563,16.6875 307.4188,16.9844 L307.4188,19.7031 Q306.7938,19.125 306.2,18.8594 Q305.6063,18.5781 304.9813,18.5781 Q303.6375,18.5781 302.95,19.6563 Q302.2625,20.7188 302.2625,22.8125 Q302.2625,24.9063 302.95,25.9844 Q303.6375,27.0469 304.9813,27.0469 Q305.6063,27.0469 306.2,26.7813 Q306.7938,26.5 307.4188,25.9219 L307.4188,28.6406 Z " fill="#000000"/><text fill="#000000" font-family="sans-serif" font-size="14" lengthAdjust="spacing" textLength="138" x="323.55" y="27.8467">NavigatorModelData</text><line style="stroke:#181818;stroke-width:0.5;" x1="267.5" x2="486.5" y1="39" y2="39"/><rect fill="none" height="6" style="stroke:#C82930;stroke-width:1.0;" width="6" x="274.5" y="49.6484"/><text fill="#000000" font-family="sans-serif" font-size="14" lengthAdjust="spacing" textLength="92" x="286.5" y="55.9951">lineCount: int</text><rect fill="none" height="6" style="stroke:#C82930;stroke-width:1.0;" width="6" x="274.5" y="65.9453"/><text fill="#000000" font-family="sans-serif" font-size="14" lengthAdjust="spacing" textLength="93" x="286.5" y="72.292">rowCount: int</text><rect fill="none" height="6" style="stroke:#C82930;stroke-width:1.0;" width="6" x="274.5" y="82.2422"/><text fill="#000000" font-family="sans-serif" font-size="14" lengthAdjust="spacing" textLength="128" x="286.5" y="88.5889">totalItemCount: int</text><rect fill="none" height="6" style="stroke:#C82930;stroke-width:1.0;" width="6" x="274.5" y="98.5391"/><text fill="#000000" font-family="sans-serif" font-size="14" lengthAdjust="spacing" textLength="118" x="286.5" y="104.8857">currentFocus: int</text><rect fill="none" height="6" style="stroke:#C82930;stroke-width:1.0;" width="6" x="274.5" y="114.8359"/><text fill="#000000" font-family="sans-serif" font-size="14" lengthAdjust="spacing" textLength="127" x="286.5" y="121.1826">previousFocus: int</text><line style="stroke:#181818;stroke-width:1.0;stroke-dasharray:1.0,2.0;" x1="267.5" x2="486.5" y1="128.4844" y2="128.4844"/><ellipse cx="277.5" cy="142.1328" fill="#84BE84" rx="3" ry="3" style="stroke:#038048;stroke-width:1.0;"/><text fill="#000000" font-family="sans-serif" font-size="14" lengthAdjust="spacing" textLength="195" x="286.5" y="145.4795">setObjects(Object[] objects)</text></g><!--MD5=[db491ef423d9708f8d777525cf661a87]
class NavigatorView--><g id="elem_NavigatorView"><rect codeLine="27" fill="#F1F1F1" height="80.5938" id="NavigatorView" rx="2.5" ry="2.5" style="stroke:#181818;stroke-width:0.5;" width="179" x="29.5" y="262.5"/><ellipse cx="67.45" cy="278.5" fill="#A9DCDF" rx="11" ry="11" style="stroke:#181818;stroke-width:1.0;"/><path d="M67.5594,273.8438 L66.4031,278.9219 L68.7313,278.9219 L67.5594,273.8438 Z M66.075,271.6094 L69.0594,271.6094 L72.4188,284 L69.9656,284 L69.2,280.9375 L65.9188,280.9375 L65.1688,284 L62.7313,284 L66.075,271.6094 Z " fill="#000000"/><text fill="#000000" font-family="sans-serif" font-size="14" font-style="italic" lengthAdjust="spacing" textLength="96" x="86.55" y="283.3467">NavigatorView</text><line style="stroke:#181818;stroke-width:0.5;" x1="30.5" x2="207.5" y1="294.5" y2="294.5"/><rect fill="none" height="6" style="stroke:#C82930;stroke-width:1.0;" width="6" x="37.5" y="305.1484"/><text fill="#000000" font-family="sans-serif" font-size="14" lengthAdjust="spacing" textLength="153" x="49.5" y="311.4951">NavigatorModel model</text><line style="stroke:#181818;stroke-width:0.5;" x1="30.5" x2="207.5" y1="318.7969" y2="318.7969"/><ellipse cx="40.5" cy="332.4453" fill="#84BE84" rx="3" ry="3" style="stroke:#038048;stroke-width:1.0;"/><text fill="#000000" font-family="sans-serif" font-size="14" lengthAdjust="spacing" textLength="118" x="49.5" y="335.792">paint(Graphics g)</text></g><!--MD5=[fa22f29c53ed6d2510bea2e0aa245b7f]
class Window--><g id="elem_Window"><rect fill="#F1F1F1" height="48" id="Window" rx="2.5" ry="2.5" style="stroke:#181818;stroke-width:0.5;" width="86" x="76" y="437"/><ellipse cx="91" cy="453" fill="#ADD1B2" rx="11" ry="11" style="stroke:#181818;stroke-width:1.0;"/><path d="M93.9688,458.6406 Q93.3906,458.9375 92.75,459.0781 Q92.1094,459.2344 91.4063,459.2344 Q88.9063,459.2344 87.5781,457.5938 Q86.2656,455.9375 86.2656,452.8125 Q86.2656,449.6875 87.5781,448.0313 Q88.9063,446.375 91.4063,446.375 Q92.1094,446.375 92.75,446.5313 Q93.4063,446.6875 93.9688,446.9844 L93.9688,449.7031 Q93.3438,449.125 92.75,448.8594 Q92.1563,448.5781 91.5313,448.5781 Q90.1875,448.5781 89.5,449.6563 Q88.8125,450.7188 88.8125,452.8125 Q88.8125,454.9063 89.5,455.9844 Q90.1875,457.0469 91.5313,457.0469 Q92.1563,457.0469 92.75,456.7813 Q93.3438,456.5 93.9688,455.9219 L93.9688,458.6406 Z " fill="#000000"/><text fill="#000000" font-family="sans-serif" font-size="14" lengthAdjust="spacing" textLength="54" x="105" y="457.8467">Window</text><line style="stroke:#181818;stroke-width:0.5;" x1="77" x2="161" y1="469" y2="469"/><line style="stroke:#181818;stroke-width:0.5;" x1="77" x2="161" y1="477" y2="477"/></g><!--MD5=[c8b4c542fa307e1281854605c8fe70a3]
link NavigatorController to NavigatorView--><g id="link_NavigatorController_NavigatorView"><path codeLine="32" d="M119,128.68 C119,166.66 119,219.46 119,256.77 " fill="none" id="NavigatorController-to-NavigatorView" style="stroke:#181818;stroke-width:1.0;"/><polygon fill="#181818" points="119,262.16,123,253.16,119,257.16,115,253.16,119,262.16" style="stroke:#181818;stroke-width:1.0;"/></g><!--MD5=[2c384341d0ed657ac0cac68163be5cf6]
link NavigatorController to NavigatorModel--><g id="link_NavigatorController_NavigatorModel"><path codeLine="33" d="M173.8,128.68 C206.45,157.09 248.62,193.78 285.75,226.09 " fill="none" id="NavigatorController-to-NavigatorModel" style="stroke:#181818;stroke-width:1.0;"/><polygon fill="#181818" points="289.79,229.6,285.6316,220.6721,286.02,226.3156,280.3765,226.704,289.79,229.6" style="stroke:#181818;stroke-width:1.0;"/></g><!--MD5=[6672290a40fa13f2ee23011a8b777245]
link NavigatorModelData to NavigatorModel--><g id="link_NavigatorModelData_NavigatorModel"><path codeLine="34" d="M375.7,153.06 C375.28,175.89 374.82,201.23 374.4,224.44 " fill="none" id="NavigatorModelData-to-NavigatorModel" style="stroke:#181818;stroke-width:1.0;"/><polygon fill="#181818" points="374.31,229.66,378.4637,220.7299,374.3957,224.6607,370.4649,220.5928,374.31,229.66" style="stroke:#181818;stroke-width:1.0;"/><text fill="#000000" font-family="sans-serif" font-size="13" lengthAdjust="spacing" textLength="78" x="376" y="196.0669">composition</text></g><!--MD5=[f363007e34c0f27f3815881987b95b57]
link NavigatorView to Window--><g id="link_NavigatorView_Window"><path codeLine="35" d="M119,343.77 C119,366.07 119,393.91 119,416.75 " fill="none" id="NavigatorView-to-Window" style="stroke:#181818;stroke-width:1.0;"/><polygon fill="none" points="126,416.78,119,436.78,112,416.78,126,416.78" style="stroke:#181818;stroke-width:1.0;"/></g><!--MD5=[059dd51dd0c6c04424882e03c132e4e0]
@startuml
abstract class NavigatorController {
    - NavigatorView view
    - NavigatorModel model
    ..
    + processNavigation(int mode)
}

abstract class NavigatorModel {
    + CIRCULATION_NONE: int
    + CIRCULATION_UP_TO_DOWN: int
    + CIRCULATION_DOWN_TO_UP: int
    + CIRCULATION_BOTH: int
    + MOVE_WINDOW_PAGEWISE: int
    + MOVE_WINDOW_LINEWISE: int
}

class NavigatorModelData {
    - lineCount: int
    - rowCount: int
    - totalItemCount: int
    - currentFocus: int
    - previousFocus: int
    ..
    + setObjects(Object[] objects)
}

abstract class NavigatorView {
    - NavigatorModel model
    + paint(Graphics g)
}

NavigatorController - -> NavigatorView
NavigatorController - -> NavigatorModel
NavigatorModelData - -> NavigatorModel : composition
NavigatorView - -|> Window
@enduml

PlantUML version 1.2022.7(Mon Aug 22 17:01:30 UTC 2022)
(GPL source distribution)
Java Runtime: OpenJDK Runtime Environment
JVM: OpenJDK 64-Bit Server VM
Default Encoding: UTF-8
Language: en
Country: null
--></g></svg>