<?xml version="1.0" encoding="UTF-8" standalone="no"?><svg xmlns="http://www.w3.org/2000/svg" xmlns:xlink="http://www.w3.org/1999/xlink" contentStyleType="text/css" height="549px" preserveAspectRatio="none" style="width:719px;height:549px;background:#FFFFFF;" version="1.1" viewBox="0 0 719 549" width="719px" zoomAndPan="magnify"><defs/><g><!--MD5=[463c45b1df3dbfe1c2134e01e0a41cde]
class Screen--><g id="elem_Screen"><rect codeLine="1" fill="#F1F1F1" height="145.7813" id="Screen" rx="2.5" ry="2.5" style="stroke:#181818;stroke-width:0.5;" width="347" x="7" y="7"/><ellipse cx="151.75" cy="23" fill="#B4A7E5" rx="11" ry="11" style="stroke:#181818;stroke-width:1.0;"/><path d="M147.6719,18.7656 L147.6719,16.6094 L155.0625,16.6094 L155.0625,18.7656 L152.5938,18.7656 L152.5938,26.8438 L155.0625,26.8438 L155.0625,29 L147.6719,29 L147.6719,26.8438 L150.1406,26.8438 L150.1406,18.7656 L147.6719,18.7656 Z " fill="#000000"/><text fill="#000000" font-family="sans-serif" font-size="14" font-style="italic" lengthAdjust="spacing" textLength="49" x="172.25" y="27.8467">Screen</text><line style="stroke:#181818;stroke-width:0.5;" x1="8" x2="353" y1="39" y2="39"/><line style="stroke:#181818;stroke-width:0.5;" x1="8" x2="353" y1="47" y2="47"/><ellipse cx="18" cy="60.6484" fill="#84BE84" rx="3" ry="3" style="stroke:#038048;stroke-width:1.0;"/><text fill="#000000" font-family="sans-serif" font-size="14" lengthAdjust="spacing" textLength="62" x="27" y="63.9951">void init()</text><ellipse cx="18" cy="76.9453" fill="#84BE84" rx="3" ry="3" style="stroke:#038048;stroke-width:1.0;"/><text fill="#000000" font-family="sans-serif" font-size="14" lengthAdjust="spacing" textLength="232" x="27" y="80.292">void addWindow(Window window)</text><ellipse cx="18" cy="93.2422" fill="#84BE84" rx="3" ry="3" style="stroke:#038048;stroke-width:1.0;"/><text fill="#000000" font-family="sans-serif" font-size="14" lengthAdjust="spacing" textLength="321" x="27" y="96.5889">void addWComposite(WComposite composite)</text><ellipse cx="18" cy="109.5391" fill="#84BE84" rx="3" ry="3" style="stroke:#038048;stroke-width:1.0;"/><text fill="#000000" font-family="sans-serif" font-size="14" lengthAdjust="spacing" textLength="270" x="27" y="112.8857">boolean handleEvent(UserEvent event)</text><ellipse cx="18" cy="125.8359" fill="#84BE84" rx="3" ry="3" style="stroke:#038048;stroke-width:1.0;"/><text fill="#000000" font-family="sans-serif" font-size="14" lengthAdjust="spacing" textLength="210" x="27" y="129.1826">void setVisible(boolean visible)</text><ellipse cx="18" cy="142.1328" fill="#84BE84" rx="3" ry="3" style="stroke:#038048;stroke-width:1.0;"/><text fill="#000000" font-family="sans-serif" font-size="14" lengthAdjust="spacing" textLength="201" x="27" y="145.4795">boolean runDeferredEvents()</text></g><!--MD5=[68908dedb918fca019d82d8beab5385d]
class WComponent--><g id="elem_WComponent"><rect codeLine="10" fill="#F1F1F1" height="80.5938" id="WComponent" rx="2.5" ry="2.5" style="stroke:#181818;stroke-width:0.5;" width="184" x="516.5" y="39.5"/><ellipse cx="557.15" cy="55.5" fill="#A9DCDF" rx="11" ry="11" style="stroke:#181818;stroke-width:1.0;"/><path d="M557.2594,50.8438 L556.1031,55.9219 L558.4313,55.9219 L557.2594,50.8438 Z M555.775,48.6094 L558.7594,48.6094 L562.1188,61 L559.6656,61 L558.9,57.9375 L555.6188,57.9375 L554.8688,61 L552.4313,61 L555.775,48.6094 Z " fill="#000000"/><text fill="#000000" font-family="sans-serif" font-size="14" font-style="italic" lengthAdjust="spacing" textLength="95" x="576.85" y="60.3467">WComponent</text><line style="stroke:#181818;stroke-width:0.5;" x1="517.5" x2="699.5" y1="71.5" y2="71.5"/><rect fill="none" height="6" style="stroke:#C82930;stroke-width:1.0;" width="6" x="524.5" y="82.1484"/><text fill="#000000" font-family="sans-serif" font-size="14" lengthAdjust="spacing" textLength="101" x="536.5" y="88.4951">Screen screen</text><rect fill="none" height="6" style="stroke:#C82930;stroke-width:1.0;" width="6" x="524.5" y="98.4453"/><text fill="#000000" font-family="sans-serif" font-size="14" lengthAdjust="spacing" textLength="158" x="536.5" y="104.792">EventTable eventTable</text><line style="stroke:#181818;stroke-width:0.5;" x1="517.5" x2="699.5" y1="112.0938" y2="112.0938"/></g><!--MD5=[fa22f29c53ed6d2510bea2e0aa245b7f]
class Window--><g id="elem_Window"><rect codeLine="15" fill="#F1F1F1" height="96.8906" id="Window" rx="2.5" ry="2.5" style="stroke:#181818;stroke-width:0.5;" width="207" x="505" y="221"/><ellipse cx="577.25" cy="237" fill="#A9DCDF" rx="11" ry="11" style="stroke:#181818;stroke-width:1.0;"/><path d="M577.3594,232.3438 L576.2031,237.4219 L578.5313,237.4219 L577.3594,232.3438 Z M575.875,230.1094 L578.8594,230.1094 L582.2188,242.5 L579.7656,242.5 L579,239.4375 L575.7188,239.4375 L574.9688,242.5 L572.5313,242.5 L575.875,230.1094 Z " fill="#000000"/><text fill="#000000" font-family="sans-serif" font-size="14" font-style="italic" lengthAdjust="spacing" textLength="54" x="597.75" y="241.8467">Window</text><line style="stroke:#181818;stroke-width:0.5;" x1="506" x2="711" y1="253" y2="253"/><rect fill="none" height="6" style="stroke:#C82930;stroke-width:1.0;" width="6" x="513" y="263.6484"/><text fill="#000000" font-family="sans-serif" font-size="14" lengthAdjust="spacing" textLength="137" x="525" y="269.9951">WComposite parent</text><rect fill="none" height="6" style="stroke:#C82930;stroke-width:1.0;" width="6" x="513" y="279.9453"/><text fill="#000000" font-family="sans-serif" font-size="14" lengthAdjust="spacing" textLength="116" x="525" y="286.292">boolean enabled</text><line style="stroke:#181818;stroke-width:0.5;" x1="506" x2="711" y1="293.5938" y2="293.5938"/><ellipse cx="516" cy="307.2422" fill="#84BE84" rx="3" ry="3" style="stroke:#038048;stroke-width:1.0;"/><text fill="#000000" font-family="sans-serif" font-size="14" lengthAdjust="spacing" textLength="181" x="525" y="310.5889">void createWComponent()</text></g><!--MD5=[8a7bda0e8c4e995edb919b30fdcc903d]
class WComposite--><g id="elem_WComposite"><rect codeLine="21" fill="#F1F1F1" height="48" id="WComposite" rx="2.5" ry="2.5" style="stroke:#181818;stroke-width:0.5;" width="120" x="548.5" y="386"/><ellipse cx="563.5" cy="402" fill="#ADD1B2" rx="11" ry="11" style="stroke:#181818;stroke-width:1.0;"/><path d="M566.4688,407.6406 Q565.8906,407.9375 565.25,408.0781 Q564.6094,408.2344 563.9063,408.2344 Q561.4063,408.2344 560.0781,406.5938 Q558.7656,404.9375 558.7656,401.8125 Q558.7656,398.6875 560.0781,397.0313 Q561.4063,395.375 563.9063,395.375 Q564.6094,395.375 565.25,395.5313 Q565.9063,395.6875 566.4688,395.9844 L566.4688,398.7031 Q565.8438,398.125 565.25,397.8594 Q564.6563,397.5781 564.0313,397.5781 Q562.6875,397.5781 562,398.6563 Q561.3125,399.7188 561.3125,401.8125 Q561.3125,403.9063 562,404.9844 Q562.6875,406.0469 564.0313,406.0469 Q564.6563,406.0469 565.25,405.7813 Q565.8438,405.5 566.4688,404.9219 L566.4688,407.6406 Z " fill="#000000"/><text fill="#000000" font-family="sans-serif" font-size="14" lengthAdjust="spacing" textLength="88" x="577.5" y="406.8467">WComposite</text><line style="stroke:#181818;stroke-width:0.5;" x1="549.5" x2="667.5" y1="418" y2="418"/><line style="stroke:#181818;stroke-width:0.5;" x1="549.5" x2="667.5" y1="426" y2="426"/></g><!--MD5=[1c4ab390fd08f37064a8beef68ac33d1]
class WScreen--><g id="elem_WScreen"><rect codeLine="24" fill="#F1F1F1" height="113.1875" id="WScreen" rx="2.5" ry="2.5" style="stroke:#181818;stroke-width:0.5;" width="192" x="84.5" y="213"/><ellipse cx="145.25" cy="229" fill="#A9DCDF" rx="11" ry="11" style="stroke:#181818;stroke-width:1.0;"/><path d="M145.3594,224.3438 L144.2031,229.4219 L146.5313,229.4219 L145.3594,224.3438 Z M143.875,222.1094 L146.8594,222.1094 L150.2188,234.5 L147.7656,234.5 L147,231.4375 L143.7188,231.4375 L142.9688,234.5 L140.5313,234.5 L143.875,222.1094 Z " fill="#000000"/><text fill="#000000" font-family="sans-serif" font-size="14" font-style="italic" lengthAdjust="spacing" textLength="62" x="165.75" y="233.8467">WScreen</text><line style="stroke:#181818;stroke-width:0.5;" x1="85.5" x2="275.5" y1="245" y2="245"/><rect fill="none" height="6" style="stroke:#C82930;stroke-width:1.0;" width="6" x="92.5" y="255.6484"/><text fill="#000000" font-family="sans-serif" font-size="14" lengthAdjust="spacing" textLength="166" x="104.5" y="261.9951">Container rootContainer</text><rect fill="none" height="6" style="stroke:#C82930;stroke-width:1.0;" width="6" x="92.5" y="271.9453"/><text fill="#000000" font-family="sans-serif" font-size="14" lengthAdjust="spacing" textLength="110" x="104.5" y="278.292">Window window</text><rect fill="none" height="6" style="stroke:#C82930;stroke-width:1.0;" width="6" x="92.5" y="288.2422"/><text fill="#000000" font-family="sans-serif" font-size="14" lengthAdjust="spacing" textLength="154" x="104.5" y="294.5889">Hashtable composites</text><rect fill="none" height="6" style="stroke:#C82930;stroke-width:1.0;" width="6" x="92.5" y="304.5391"/><text fill="#000000" font-family="sans-serif" font-size="14" lengthAdjust="spacing" textLength="139" x="104.5" y="310.8857">Event[] eventQueue</text><line style="stroke:#181818;stroke-width:0.5;" x1="85.5" x2="275.5" y1="318.1875" y2="318.1875"/></g><!--MD5=[b928a81be06cc2f86654c84d8f529f4e]
class HSceneScreen--><g id="elem_HSceneScreen"><rect codeLine="31" fill="#F1F1F1" height="48" id="HSceneScreen" rx="2.5" ry="2.5" style="stroke:#181818;stroke-width:0.5;" width="135" x="218" y="386"/><ellipse cx="233" cy="402" fill="#ADD1B2" rx="11" ry="11" style="stroke:#181818;stroke-width:1.0;"/><path d="M235.9688,407.6406 Q235.3906,407.9375 234.75,408.0781 Q234.1094,408.2344 233.4063,408.2344 Q230.9063,408.2344 229.5781,406.5938 Q228.2656,404.9375 228.2656,401.8125 Q228.2656,398.6875 229.5781,397.0313 Q230.9063,395.375 233.4063,395.375 Q234.1094,395.375 234.75,395.5313 Q235.4063,395.6875 235.9688,395.9844 L235.9688,398.7031 Q235.3438,398.125 234.75,397.8594 Q234.1563,397.5781 233.5313,397.5781 Q232.1875,397.5781 231.5,398.6563 Q230.8125,399.7188 230.8125,401.8125 Q230.8125,403.9063 231.5,404.9844 Q232.1875,406.0469 233.5313,406.0469 Q234.1563,406.0469 234.75,405.7813 Q235.3438,405.5 235.9688,404.9219 L235.9688,407.6406 Z " fill="#000000"/><text fill="#000000" font-family="sans-serif" font-size="14" lengthAdjust="spacing" textLength="103" x="247" y="406.8467">HSceneScreen</text><line style="stroke:#181818;stroke-width:0.5;" x1="219" x2="352" y1="418" y2="418"/><line style="stroke:#181818;stroke-width:0.5;" x1="219" x2="352" y1="426" y2="426"/></g><!--MD5=[4dd408d378e1f6fa05bc5dac4cf3c7ee]
class UserEventListener--><g id="elem_UserEventListener"><rect fill="#F1F1F1" height="48" id="UserEventListener" rx="2.5" ry="2.5" style="stroke:#181818;stroke-width:0.5;" width="158" x="311.5" y="245.5"/><ellipse cx="326.5" cy="261.5" fill="#B4A7E5" rx="11" ry="11" style="stroke:#181818;stroke-width:1.0;"/><path d="M322.4219,257.2656 L322.4219,255.1094 L329.8125,255.1094 L329.8125,257.2656 L327.3438,257.2656 L327.3438,265.3438 L329.8125,265.3438 L329.8125,267.5 L322.4219,267.5 L322.4219,265.3438 L324.8906,265.3438 L324.8906,257.2656 L322.4219,257.2656 Z " fill="#000000"/><text fill="#000000" font-family="sans-serif" font-size="14" font-style="italic" lengthAdjust="spacing" textLength="126" x="340.5" y="266.3467">UserEventListener</text><line style="stroke:#181818;stroke-width:0.5;" x1="312.5" x2="468.5" y1="277.5" y2="277.5"/><line style="stroke:#181818;stroke-width:0.5;" x1="312.5" x2="468.5" y1="285.5" y2="285.5"/></g><!--MD5=[928a3a48ccfe705cd95f06702103df46]
class WSystem--><g id="elem_WSystem"><rect codeLine="35" fill="#F1F1F1" height="48" id="WSystem" rx="2.5" ry="2.5" style="stroke:#181818;stroke-width:0.5;" width="96" x="560.5" y="494"/><ellipse cx="575.5" cy="510" fill="#ADD1B2" rx="11" ry="11" style="stroke:#181818;stroke-width:1.0;"/><path d="M578.4688,515.6406 Q577.8906,515.9375 577.25,516.0781 Q576.6094,516.2344 575.9063,516.2344 Q573.4063,516.2344 572.0781,514.5938 Q570.7656,512.9375 570.7656,509.8125 Q570.7656,506.6875 572.0781,505.0313 Q573.4063,503.375 575.9063,503.375 Q576.6094,503.375 577.25,503.5313 Q577.9063,503.6875 578.4688,503.9844 L578.4688,506.7031 Q577.8438,506.125 577.25,505.8594 Q576.6563,505.5781 576.0313,505.5781 Q574.6875,505.5781 574,506.6563 Q573.3125,507.7188 573.3125,509.8125 Q573.3125,511.9063 574,512.9844 Q574.6875,514.0469 576.0313,514.0469 Q576.6563,514.0469 577.25,513.7813 Q577.8438,513.5 578.4688,512.9219 L578.4688,515.6406 Z " fill="#000000"/><text fill="#000000" font-family="sans-serif" font-size="14" lengthAdjust="spacing" textLength="64" x="589.5" y="514.8467">WSystem</text><line style="stroke:#181818;stroke-width:0.5;" x1="561.5" x2="655.5" y1="526" y2="526"/><line style="stroke:#181818;stroke-width:0.5;" x1="561.5" x2="655.5" y1="534" y2="534"/></g><!--MD5=[5c8a0e59a86bb8fdea481635c84b53d3]
reverse link WComponent to Window--><g id="link_WComponent_Window"><path d="M608.5,140.89 C608.5,166.72 608.5,196.52 608.5,220.82 " fill="none" id="WComponent-backto-Window" style="stroke:#181818;stroke-width:1.0;"/><polygon fill="none" points="601.5,140.76,608.5,120.76,615.5,140.76,601.5,140.76" style="stroke:#181818;stroke-width:1.0;"/></g><!--MD5=[56b6d1242d7459fc245f1cf9e49a22df]
reverse link Window to WComposite--><g id="link_Window_WComposite"><path d="M608.5,338.3 C608.5,355.39 608.5,372.59 608.5,385.75 " fill="none" id="Window-backto-WComposite" style="stroke:#181818;stroke-width:1.0;"/><polygon fill="none" points="601.5,338.16,608.5,318.16,615.5,338.16,601.5,338.16" style="stroke:#181818;stroke-width:1.0;"/></g><!--MD5=[59ca774e6c64557690251155de30a4d7]
reverse link Screen to WScreen--><g id="link_Screen_WScreen"><path d="M180.5,173.5 C180.5,186.97 180.5,200.48 180.5,212.91 " fill="none" id="Screen-backto-WScreen" style="stroke:#181818;stroke-width:1.0;stroke-dasharray:7.0,7.0;"/><polygon fill="none" points="173.5,173.22,180.5,153.22,187.5,173.22,173.5,173.22" style="stroke:#181818;stroke-width:1.0;"/></g><!--MD5=[915ed8616b846f88b7edd66128962937]
reverse link WScreen to HSceneScreen--><g id="link_WScreen_HSceneScreen"><path d="M235.03,342.43 C247,358.22 258.84,373.83 268.03,385.96 " fill="none" id="WScreen-backto-HSceneScreen" style="stroke:#181818;stroke-width:1.0;"/><polygon fill="none" points="229.11,346.2,222.6,326.04,240.26,337.74,229.11,346.2" style="stroke:#181818;stroke-width:1.0;"/></g><!--MD5=[d645dcffb0be857d447e865dfcc861aa]
reverse link UserEventListener to HSceneScreen--><g id="link_UserEventListener_HSceneScreen"><path d="M360.68,309.83 C342.1,334.34 318.82,365.05 303.13,385.74 " fill="none" id="UserEventListener-backto-HSceneScreen" style="stroke:#181818;stroke-width:1.0;stroke-dasharray:7.0,7.0;"/><polygon fill="none" points="355.26,305.39,372.93,293.68,366.42,313.85,355.26,305.39" style="stroke:#181818;stroke-width:1.0;"/></g><!--MD5=[66dd5860964eb3622421199d8549cf07]
reverse link WComposite to WSystem--><g id="link_WComposite_WSystem"><path d="M608.5,454.02 C608.5,467.58 608.5,482.04 608.5,493.68 " fill="none" id="WComposite-backto-WSystem" style="stroke:#181818;stroke-width:1.0;"/><polygon fill="none" points="601.5,454,608.5,434,615.5,454,601.5,454" style="stroke:#181818;stroke-width:1.0;"/></g><!--MD5=[a0ed479eb4ee2b7f769e1180938a2c6d]
@startuml
interface Screen {
    +void init()
    +void addWindow(Window window)
    +void addWComposite(WComposite composite)
    +boolean handleEvent(UserEvent event)
    +void setVisible(boolean visible)
    +boolean runDeferredEvents()
}

abstract class WComponent {
    -Screen screen
    -EventTable eventTable
}

abstract class Window extends WComponent {
    -WComposite parent
    -boolean enabled
    +void createWComponent()
}

class WComposite extends Window {
}

abstract class WScreen implements Screen {
    -Container rootContainer
    -Window window
    -Hashtable composites
    -Event[] eventQueue
}

class HSceneScreen extends WScreen implements UserEventListener {
}


class WSystem extends WComposite {
}
@enduml

PlantUML version 1.2022.7(Mon Aug 22 17:01:30 UTC 2022)
(GPL source distribution)
Java Runtime: OpenJDK Runtime Environment
JVM: OpenJDK 64-Bit Server VM
Default Encoding: UTF-8
Language: en
Country: null
--></g></svg>